<svg class="svg-icon drupal" xmlns="http://www.w3.org/2000/svg" xmlns:xlink="http://www.w3.org/1999/xlink" width="30pt" height="30pt" viewBox="0 0 30 30" version="1.1">
<g>
<path class="path-update" style=" stroke:none;fill-rule:nonzero;fill:rgb(0%,61.568627%,87.058824%);fill-opacity:1;" d="M 15.007812 0.00390625 C 23.289062 0.00390625 30 6.71875 30 15 L 30 15.003906 C 29.996094 23.289062 23.277344 30 14.996094 29.996094 C 6.714844 29.996094 0 23.277344 0.00390625 14.996094 C 0.0078125 6.710938 6.722656 0 15.007812 0.00390625 Z M 14.929688 3.859375 C 14.519531 5.417969 13.128906 6.804688 11.675781 8.257812 C 9.5 10.4375 7.027344 12.90625 7.027344 16.609375 C 7.035156 20.96875 10.5625 24.5 14.921875 24.511719 C 19.285156 24.511719 22.828125 20.976562 22.832031 16.609375 C 22.832031 12.90625 20.367188 10.4375 18.183594 8.257812 L 17.988281 8.0625 C 16.609375 6.679688 15.324219 5.351562 14.929688 3.859375 Z M 15.039062 15.691406 C 15.945312 16.660156 16.519531 17.328125 17.117188 18.054688 C 17.164062 18.109375 17.203125 18.167969 17.238281 18.230469 C 17.96875 19.28125 17.871094 20.703125 17 21.644531 C 15.976562 22.75 14.25 22.820312 13.140625 21.796875 C 12.03125 20.773438 11.960938 19.042969 12.988281 17.933594 C 13.566406 17.246094 14.269531 16.570312 15.039062 15.691406 Z M 11.425781 12.066406 L 11.808594 12.425781 L 13.578125 14.238281 C 13.644531 14.3125 13.644531 14.425781 13.578125 14.503906 L 11.726562 16.546875 L 11.082031 17.335938 C 10.835938 17.636719 10.625 17.964844 10.457031 18.316406 C 10.433594 18.371094 10.382812 18.417969 10.324219 18.429688 L 10.257812 18.429688 C 10.078125 18.414062 9.871094 18.082031 9.871094 18.082031 L 9.839844 18.035156 C 9.796875 17.96875 9.757812 17.898438 9.722656 17.828125 L 9.6875 17.753906 C 9.433594 16.929688 9.414062 16.050781 9.628906 15.214844 L 9.652344 15.128906 C 9.847656 14.433594 10.160156 13.777344 10.570312 13.1875 C 10.832031 12.796875 11.121094 12.421875 11.425781 12.066406 Z M 14.941406 8.40625 C 15.414062 8.941406 15.945312 9.480469 16.445312 9.980469 L 16.457031 10.015625 C 17.503906 10.992188 18.453125 12.070312 19.285156 13.234375 C 19.992188 14.226562 20.378906 15.414062 20.390625 16.632812 C 20.390625 17.160156 20.3125 17.683594 20.15625 18.1875 L 20.148438 18.207031 C 20.105469 18.3125 20.015625 18.386719 19.90625 18.402344 L 19.855469 18.402344 C 19.746094 18.371094 19.65625 18.296875 19.601562 18.199219 L 19.515625 18.070312 C 19.066406 17.402344 18.554688 16.773438 17.996094 16.191406 L 17.273438 15.429688 L 14.867188 12.921875 C 14.460938 12.53125 13.734375 11.832031 13.425781 11.449219 C 13.417969 11.429688 13.40625 11.40625 13.394531 11.390625 C 13.308594 11.273438 13.246094 11.148438 13.203125 11.011719 L 13.203125 10.9375 C 13.160156 10.695312 13.195312 10.441406 13.296875 10.214844 C 13.363281 10.074219 13.457031 9.941406 13.566406 9.832031 C 14.035156 9.363281 14.5 8.910156 14.941406 8.40625 Z M 14.941406 8.40625 "/>
</g>
</svg>

