<svg class="svg-icon facebook" xmlns="http://www.w3.org/2000/svg" xmlns:xlink="http://www.w3.org/1999/xlink" width="30pt" height="30pt" viewBox="0 0 30 30" version="1.1">
<g>
<path class="path-update" style=" stroke:none;fill-rule:nonzero;fill:rgb(25.882353%,40.392157%,69.803922%);fill-opacity:1;" d="M 30 15.085938 C 30 6.761719 23.289062 0 15 0 C 6.710938 0 0 6.75 0 15.085938 C 0 22.625 5.488281 28.875 12.664062 30 L 12.664062 19.449219 L 8.851562 19.449219 L 8.851562 15.085938 L 12.648438 15.085938 L 12.648438 11.761719 C 12.648438 7.988281 14.898438 5.886719 18.324219 5.886719 C 19.960938 5.886719 21.675781 6.1875 21.675781 6.1875 L 21.675781 9.898438 L 19.800781 9.898438 C 17.925781 9.898438 17.351562 11.0625 17.351562 12.261719 L 17.351562 15.085938 L 21.5 15.085938 L 20.835938 19.460938 L 17.335938 19.460938 L 17.335938 30 C 24.523438 28.875 30 22.625 30 15.085938 "/>
</g>
</svg>
