<svg class="svg-icon linkedin" xmlns="http://www.w3.org/2000/svg" xmlns:xlink="http://www.w3.org/1999/xlink" width="30pt" height="30pt" viewBox="0 0 30 30" version="1.1">
<g>
<path class="path-update" style=" stroke:none;fill-rule:nonzero;fill:rgb(0%,44.705882%,69.411765%);fill-opacity:1;" d="M 15 0 C 23.285156 0 30 6.714844 30 15 C 30 23.285156 23.285156 30 15 30 C 6.714844 30 0 23.285156 0 15 C 0 6.714844 6.714844 0 15 0 Z M 11.1875 11.753906 L 7.707031 11.753906 L 7.707031 21.875 L 11.1875 21.875 Z M 19.738281 11.515625 C 18.085938 11.515625 17.25 12.300781 16.757812 12.960938 L 16.601562 13.1875 L 16.601562 11.753906 L 13.117188 11.753906 L 13.128906 12.359375 C 13.136719 13.152344 13.140625 14.542969 13.136719 16.019531 L 13.117188 21.875 L 16.601562 21.875 L 16.601562 16.222656 C 16.601562 15.921875 16.621094 15.617188 16.714844 15.402344 C 16.96875 14.796875 17.539062 14.171875 18.503906 14.171875 C 19.695312 14.171875 20.210938 15.003906 20.261719 16.25 L 20.265625 16.457031 L 20.265625 21.875 L 23.75 21.875 L 23.75 16.070312 C 23.75 12.960938 22.03125 11.515625 19.738281 11.515625 Z M 9.46875 6.875 C 8.277344 6.875 7.5 7.632812 7.5 8.625 C 7.5 9.535156 8.171875 10.28125 9.222656 10.363281 L 9.449219 10.371094 C 10.660156 10.371094 11.417969 9.59375 11.417969 8.625 C 11.394531 7.632812 10.664062 6.875 9.46875 6.875 Z M 9.46875 6.875 "/>
</g>
</svg>
