<svg version="1.0" xmlns="http://www.w3.org/2000/svg"
 width="83.000000pt" height="83.000000pt" viewBox="0 0 83.000000 83.000000"
 preserveAspectRatio="xMidYMid meet">
<metadata>
Created by potrace 1.16, written by Peter Selinger 2001-2019
</metadata>
<g transform="translate(0.000000,83.000000) scale(0.100000,-0.100000)"
fill="#06A3DA" stroke="none">
<path d="M314 787 c-111 -29 -206 -109 -258 -217 -28 -59 -31 -74 -31 -160 0
-85 3 -102 31 -160 39 -83 111 -155 194 -194 58 -28 75 -31 160 -31 85 0 102
3 160 31 84 39 155 111 194 194 27 56 31 76 31 150 0 99 -21 155 -79 213 -63
64 -109 82 -206 82 -73 0 -92 -4 -136 -27 -85 -45 -134 -114 -154 -216 -27
-142 99 -265 237 -230 94 23 167 134 143 218 -23 80 -109 122 -178 86 -82 -42
-104 -150 -36 -176 32 -13 74 5 85 38 8 20 5 22 -26 22 -39 0 -42 6 -19 38 10
15 25 22 49 22 46 0 70 -35 60 -86 -14 -76 -97 -121 -172 -93 -78 30 -103 114
-60 201 36 73 81 102 166 106 59 3 71 0 109 -25 63 -41 97 -115 88 -189 -8
-65 -26 -106 -70 -152 -53 -57 -101 -77 -186 -77 -85 0 -133 20 -186 77 -55
58 -69 95 -69 183 1 65 6 91 27 137 33 71 93 136 155 171 51 27 159 50 202 42
21 -4 19 -2 -8 11 -47 21 -155 26 -217 11z"/>
</g>
</svg>
