<svg height="64" viewBox="0 0 128 128" width="64" xmlns="http://www.w3.org/2000/svg" xmlns:xlink="http://www.w3.org/1999/xlink"><linearGradient id="a" gradientUnits="userSpaceOnUse" x1="0" x2="128" y1="128" y2="0"><stop offset="0" stop-color="#333"/><stop offset="1" stop-color="#5d5d5d"/></linearGradient><path d="m29.09375 11.234375c-3.183804 0-5.71875 2.566196-5.71875 5.75v94.031255c0 3.1838 2.534946 5.75 5.71875 5.75h69.8125c3.1838 0 5.71875-2.5662 5.71875-5.75v-70.656255h-21.03125c-4.306108 0-8.0625-3.141109-8.0625-7.3125v-21.8125zm50.4375 0v21.8125c0 1.714122 1.631968 3.3125 4.0625 3.3125h21.03125zm-25.21875 49.59375h4.90625l-1.71875 8.5625h4.84375l1.6875-8.5625h5.09375l-1.75 8.5625h3.03125v4.84375h-4.03125l-1.3125 6.46875h5.34375v4.8125h-6.3125l-1.75 8.5625h-4.875l1.6875-8.5625h-4.875l-1.75 8.5625h-4.9375l1.71875-8.5625h-2.96875v-4.8125h3.9375l1.3125-6.46875h-5.25v-4.84375h6.25zm20.65625.53125h6.65625v7.5625l-1.5625 16.3125h-3.5l-1.59375-16.3125zm-18.4375 12.875-1.28125 6.46875h4.875l1.25-6.46875zm18.71875 13.125h6.15625v6.15625h-6.15625z" fill="url(#a)"/></svg>