<svg height="64" viewBox="0 0 128 128" width="64" xmlns="http://www.w3.org/2000/svg" xmlns:xlink="http://www.w3.org/1999/xlink"><linearGradient id="a" gradientUnits="userSpaceOnUse" x1="0" x2="128" y1="128" y2="0"><stop offset="0" stop-color="#333"/><stop offset="1" stop-color="#5d5d5d"/></linearGradient><path d="m29.09375 11.234375c-3.183804 0-5.71875 2.566196-5.71875 5.75v94.031255c0 3.1838 2.534946 5.75 5.71875 5.75h69.8125c3.1838 0 5.71875-2.5662 5.71875-5.75v-70.656255h-21.03125c-4.306108 0-8.0625-3.141109-8.0625-7.3125v-21.8125zm50.4375 0v21.8125c0 1.714122 1.631968 3.3125 4.0625 3.3125h21.03125zm-17.9375 43.75 17.125 12.46875v2.46875 6.5625 18.1875c0 2.332007-3.484931 4.21875-7.78125 4.21875-4.296332 0-7.78125-1.886743-7.78125-4.21875 0-2.331989 3.484918-4.21875 7.78125-4.21875 1.699299 0 3.251638.310665 4.53125.8125v-17.125l-10.65625-7.75v17.8125c0 2.331991-3.45368 4.25-7.75 4.25-4.296333 0-7.78125-1.918009-7.78125-4.25 0-2.331993 3.484917-4.21875 7.78125-4.21875 1.699299 0 3.251639.310667 4.53125.8125v-16.78125z" fill="url(#a)"/></svg>