
<svg width="100%" height="100%" viewBox="0 0 335 447" version="1.1" xmlns="http://www.w3.org/2000/svg" xmlns:xlink="http://www.w3.org/1999/xlink" xml:space="preserve" style="fill-rule:evenodd;clip-rule:evenodd;">
    <g transform="matrix(1,0,0,1,-3845.32,-78.19)">
        <g transform="matrix(4.16667,0,0,4.16667,0,0)">
            <clipPath id="_clip1">
                <path d="M972,22.889L999,49.889L999,121.889L927,121.889L927,22.889L972,22.889Z"/>
            </clipPath>
            <g clip-path="url(#_clip1)">
                <path d="M927,121.889L927,22.889L999,22.889L999,121.889L927,121.889Z" style="fill:url(#_Linear2);fill-rule:nonzero;"/>
            </g>
        </g>
        <g transform="matrix(4.16667,0,0,4.16667,0,0)">
            <path d="M972,22.889L999,49.889L999,121.889L927,121.889L927,22.889L972,22.889Z" style="fill:none;stroke-width:2px;stroke:rgb(113,146,161);"/>
        </g>
        <g transform="matrix(4.16667,0,0,4.16667,0,0)">
            <clipPath id="_clip3">
                <path d="M972,22.889L999,49.889L972,49.889L972,22.889Z"/>
            </clipPath>
            <g clip-path="url(#_clip3)">
                <path d="M958.5,36.389L972,22.889L999,49.889L985.5,63.389L958.5,36.389Z" style="fill:url(#_Linear4);fill-rule:nonzero;"/>
            </g>
        </g>
        <g transform="matrix(4.16667,0,0,4.16667,0,0)">
            <path d="M972,22.889L999,49.889L972,49.889L972,22.889Z" style="fill:none;stroke-width:2px;stroke-linejoin:bevel;stroke:rgb(113,146,161);"/>
        </g>
        <g transform="matrix(4.16667,0,0,4.16667,0,0)">
            <text x="934px" y="112.889px" style="font-family:'Arial-BoldMT', 'Arial', sans-serif;font-weight:700;font-size:28px;fill:rgb(76,108,123);">CPP</text>
        </g>
    </g>
    <defs>
        <linearGradient id="_Linear2" x1="0" y1="0" x2="1" y2="0" gradientUnits="userSpaceOnUse" gradientTransform="matrix(-4.3e-06,-99,99,-4.3e-06,963,121.889)"><stop offset="0%" style="stop-color:rgb(200,212,219);stop-opacity:1"/><stop offset="100%" style="stop-color:white;stop-opacity:1"/></linearGradient>
        <linearGradient id="_Linear4" x1="0" y1="0" x2="1" y2="0" gradientUnits="userSpaceOnUse" gradientTransform="matrix(13.4999,-13.4999,13.4999,13.4999,972.001,49.8896)"><stop offset="0%" style="stop-color:white;stop-opacity:1"/><stop offset="81%" style="stop-color:rgb(197,209,216);stop-opacity:1"/><stop offset="100%" style="stop-color:rgb(146,166,177);stop-opacity:1"/></linearGradient>
    </defs>
</svg>
