
<svg width="100%" height="100%" viewBox="0 0 335 447" version="1.1" xmlns="http://www.w3.org/2000/svg" xmlns:xlink="http://www.w3.org/1999/xlink" xml:space="preserve" style="fill-rule:evenodd;clip-rule:evenodd;">
    <g transform="matrix(1,0,0,1,-4595.32,-78.19)">
        <g transform="matrix(4.16667,0,0,4.16667,0,0)">
            <clipPath id="_clip1">
                <path d="M1152,22.889L1179,49.889L1179,121.889L1107,121.889L1107,22.889L1152,22.889Z"/>
            </clipPath>
            <g clip-path="url(#_clip1)">
                <path d="M1107,121.889L1107,22.889L1179,22.889L1179,121.889L1107,121.889Z" style="fill:url(#_Linear2);fill-rule:nonzero;"/>
            </g>
        </g>
        <g transform="matrix(4.16667,0,0,4.16667,0,0)">
            <path d="M1152,22.889L1179,49.889L1179,121.889L1107,121.889L1107,22.889L1152,22.889Z" style="fill:none;stroke-width:2px;stroke:rgb(113,146,161);"/>
        </g>
        <g transform="matrix(4.16667,0,0,4.16667,0,0)">
            <clipPath id="_clip3">
                <path d="M1142.34,40.762C1141.38,40.744 1140.41,40.79 1139.43,40.912C1138.45,41.033 1137.5,41.227 1136.57,41.479L1133.9,36.775L1125.15,41.738L1127.82,46.44C1126.42,47.791 1125.22,49.337 1124.25,51.025L1119.04,49.589L1116.37,59.282L1121.58,60.72C1121.56,61.678 1121.61,62.65 1121.73,63.629C1121.85,64.609 1122.05,65.559 1122.3,66.486L1117.59,69.156L1122.56,77.9L1127.26,75.232C1128.61,76.634 1130.15,77.838 1131.84,78.804L1130.41,84.016L1140.1,86.689L1141.54,81.476C1142.5,81.495 1143.47,81.449 1144.45,81.326C1145.42,81.205 1146.38,81.011 1147.3,80.76L1149.97,85.463L1158.72,80.499L1156.05,75.797C1157.45,74.448 1158.66,72.902 1159.62,71.212L1164.83,72.65L1167.51,62.956L1162.29,61.517C1162.31,60.559 1162.27,59.589 1162.14,58.609C1162.02,57.63 1161.83,56.677 1161.58,55.752L1166.28,53.083L1161.32,44.338L1156.62,47.006C1155.27,45.604 1153.72,44.399 1152.03,43.434L1153.47,38.222L1143.77,35.549L1142.34,40.762ZM1133.7,62.142C1133.14,57.595 1136.37,53.452 1140.91,52.886C1145.46,52.322 1149.6,55.55 1150.17,60.097C1150.74,64.643 1147.51,68.788 1142.96,69.352C1142.61,69.395 1142.27,69.416 1141.93,69.416C1137.8,69.416 1134.23,66.341 1133.7,62.142Z"/>
            </clipPath>
            <g clip-path="url(#_clip3)">
                <path d="M1116.37,86.689L1116.37,35.549L1167.51,35.549L1167.51,86.689L1116.37,86.689Z" style="fill:url(#_Linear4);fill-rule:nonzero;"/>
            </g>
        </g>
        <g transform="matrix(4.16667,0,0,4.16667,0,0)">
            <clipPath id="_clip5">
                <path d="M1152,49.888L1179,49.888L1152,22.888L1152,49.888Z"/>
            </clipPath>
            <g clip-path="url(#_clip5)">
                <path d="M1138.5,36.388L1152,22.888L1179,49.888L1165.5,63.388L1138.5,36.388Z" style="fill:url(#_Linear6);fill-rule:nonzero;"/>
            </g>
        </g>
        <g transform="matrix(4.16667,0,0,4.16667,0,0)">
            <path d="M1152,22.889L1179,49.889L1152,49.889L1152,22.889Z" style="fill:none;stroke-width:2px;stroke-linejoin:bevel;stroke:rgb(113,146,161);"/>
        </g>
        <g transform="matrix(4.16667,0,0,4.16667,0,0)">
            <text x="1114px" y="113.889px" style="font-family:'Arial-BoldMT', 'Arial', sans-serif;font-weight:700;font-size:28px;fill:rgb(76,108,123);">EXE</text>
        </g>
    </g>
    <defs>
        <linearGradient id="_Linear2" x1="0" y1="0" x2="1" y2="0" gradientUnits="userSpaceOnUse" gradientTransform="matrix(-4.3e-06,-99,99,-4.3e-06,1143,121.889)"><stop offset="0%" style="stop-color:rgb(200,212,219);stop-opacity:1"/><stop offset="100%" style="stop-color:white;stop-opacity:1"/></linearGradient>
        <linearGradient id="_Linear4" x1="0" y1="0" x2="1" y2="0" gradientUnits="userSpaceOnUse" gradientTransform="matrix(-2.2e-06,-51.1411,51.1411,-2.2e-06,1141.94,86.6895)"><stop offset="0%" style="stop-color:rgb(173,204,220);stop-opacity:1"/><stop offset="100%" style="stop-color:rgb(76,108,123);stop-opacity:1"/></linearGradient>
        <linearGradient id="_Linear6" x1="0" y1="0" x2="1" y2="0" gradientUnits="userSpaceOnUse" gradientTransform="matrix(13.4999,-13.4999,13.4999,13.4999,1152,49.8896)"><stop offset="0%" style="stop-color:white;stop-opacity:1"/><stop offset="81%" style="stop-color:rgb(197,209,216);stop-opacity:1"/><stop offset="100%" style="stop-color:rgb(146,166,177);stop-opacity:1"/></linearGradient>
    </defs>
</svg>
