
<svg width="100%" height="100%" viewBox="0 0 335 447" version="1.1" xmlns="http://www.w3.org/2000/svg" xmlns:xlink="http://www.w3.org/1999/xlink" xml:space="preserve" style="fill-rule:evenodd;clip-rule:evenodd;">
    <g transform="matrix(1,0,0,1,-4220.32,-78.19)">
        <g transform="matrix(4.16667,0,0,4.16667,0,0)">
            <clipPath id="_clip1">
                <path d="M1017,22.888L1017,121.888L1089,121.888L1089,49.888L1062,22.888L1017,22.888Z"/>
            </clipPath>
            <g clip-path="url(#_clip1)">
                <path d="M1017,121.888L1017,22.888L1089,22.888L1089,121.888L1017,121.888Z" style="fill:url(#_Linear2);fill-rule:nonzero;"/>
            </g>
        </g>
        <g transform="matrix(4.16667,0,0,4.16667,0,0)">
            <path d="M1062,22.889L1089,49.889L1089,121.889L1017,121.889L1017,22.889L1062,22.889Z" style="fill:none;stroke-width:2px;stroke:rgb(113,146,161);"/>
        </g>
        <g transform="matrix(4.16667,0,0,4.16667,0,0)">
            <clipPath id="_clip3">
                <path d="M1062,49.888L1089,49.888L1062,22.888L1062,49.888Z"/>
            </clipPath>
            <g clip-path="url(#_clip3)">
                <path d="M1048.5,36.388L1062,22.888L1089,49.888L1075.5,63.388L1048.5,36.388Z" style="fill:url(#_Linear4);fill-rule:nonzero;"/>
            </g>
        </g>
        <g transform="matrix(4.16667,0,0,4.16667,0,0)">
            <path d="M1062,22.889L1089,49.889L1062,49.889L1062,22.889Z" style="fill:none;stroke-width:2px;stroke-linejoin:bevel;stroke:rgb(113,146,161);"/>
        </g>
        <g transform="matrix(4.16667,0,0,4.16667,0,0)">
            <path d="M1017.96,120.932L1017.96,86.192L1088.11,86.192L1088.11,120.932L1017.96,120.932Z" style="fill:url(#_Linear5);fill-rule:nonzero;"/>
        </g>
        <g transform="matrix(4.16667,0,0,4.16667,0,0)">
            <text x="1029.72px" y="112.973px" style="font-family:'Arial-BoldMT', 'Arial', sans-serif;font-weight:700;font-size:28px;fill:white;">ICS</text>
        </g>
    </g>
    <defs>
        <linearGradient id="_Linear2" x1="0" y1="0" x2="1" y2="0" gradientUnits="userSpaceOnUse" gradientTransform="matrix(-4.3e-06,-99,99,-4.3e-06,1053,121.889)"><stop offset="0%" style="stop-color:rgb(200,212,219);stop-opacity:1"/><stop offset="100%" style="stop-color:white;stop-opacity:1"/></linearGradient>
        <linearGradient id="_Linear4" x1="0" y1="0" x2="1" y2="0" gradientUnits="userSpaceOnUse" gradientTransform="matrix(13.4999,-13.4999,13.4999,13.4999,1062,49.8887)"><stop offset="0%" style="stop-color:white;stop-opacity:1"/><stop offset="81%" style="stop-color:rgb(197,209,216);stop-opacity:1"/><stop offset="100%" style="stop-color:rgb(146,166,177);stop-opacity:1"/></linearGradient>
        <linearGradient id="_Linear5" x1="0" y1="0" x2="1" y2="0" gradientUnits="userSpaceOnUse" gradientTransform="matrix(-1.5e-06,-34.7407,34.7407,-1.5e-06,1053.03,120.932)"><stop offset="0%" style="stop-color:rgb(239,63,54);stop-opacity:1"/><stop offset="100%" style="stop-color:rgb(190,30,45);stop-opacity:1"/></linearGradient>
    </defs>
</svg>
