<svg height="64" viewBox="0 0 128 128" width="64" xmlns="http://www.w3.org/2000/svg" xmlns:xlink="http://www.w3.org/1999/xlink"><linearGradient id="a" gradientUnits="userSpaceOnUse" x1="0" x2="128" y1="128" y2="0"><stop offset="0" stop-color="#333"/><stop offset="1" stop-color="#5d5d5d"/></linearGradient><path d="m29.09375 11.25c-3.1838 0-5.71875 2.566196-5.71875 5.75v94c0 3.1838 2.53495 5.75 5.71875 5.75h69.8125c3.1838 0 5.71875-2.5662 5.71875-5.75v-70.625h-21.03125c-4.30611 0-8.0625-3.141109-8.0625-7.3125v-21.8125zm50.4375 0v21.8125c0 1.714122 1.63197 3.3125 4.0625 3.3125h21.03125zm-41.15625 46.625h51.25v38.125h-51.25zm3.5 4.34375v26.8125c.845074-1.285379 2.291137-2.886678 4.71875-4.0625 13.328591-6.455741 20.173249 1.404429 28.71875 2.90625 4.36081.766387 8.53988-2.458634 10.84375-4.625v-21.03125zm32.09375 5.0625c2.458191 0 4.4375 2.010559 4.4375 4.46875 0 2.45819-1.979309 4.4375-4.4375 4.4375s-4.46875-1.97931-4.46875-4.4375c0-2.458191 2.010559-4.46875 4.46875-4.46875z" fill="url(#a)"/></svg>