
<svg width="100%" height="100%" viewBox="0 0 335 447" version="1.1" xmlns="http://www.w3.org/2000/svg" xmlns:xlink="http://www.w3.org/1999/xlink" xml:space="preserve" style="fill-rule:evenodd;clip-rule:evenodd;">
    <g transform="matrix(1,0,0,1,-1970.32,-2228.19)">
        <g transform="matrix(4.16667,0,0,4.16667,0,0)">
            <clipPath id="_clip1">
                <path d="M477,538.889L477,637.889L549,637.889L549,565.889L522,538.889L477,538.889Z"/>
            </clipPath>
            <g clip-path="url(#_clip1)">
                <path d="M477,637.889L477,538.889L549,538.889L549,637.889L477,637.889Z" style="fill:url(#_Linear2);fill-rule:nonzero;"/>
            </g>
        </g>
        <g transform="matrix(4.16667,0,0,4.16667,0,0)">
            <path d="M522,538.889L549,565.889L549,637.889L477,637.889L477,538.889L522,538.889Z" style="fill:none;stroke-width:2px;stroke:rgb(0,110,108);"/>
        </g>
        <g transform="matrix(4.16667,0,0,4.16667,0,0)">
            <clipPath id="_clip3">
                <path d="M522,565.889L549,565.889L522,538.889L522,565.889Z"/>
            </clipPath>
            <g clip-path="url(#_clip3)">
                <path d="M508.5,552.389L522,538.889L549,565.889L535.5,579.389L508.5,552.389Z" style="fill:url(#_Linear4);fill-rule:nonzero;"/>
            </g>
        </g>
        <g transform="matrix(4.16667,0,0,4.16667,0,0)">
            <path d="M522,538.889L549,565.889L522,565.889L522,538.889Z" style="fill:none;stroke-width:2px;stroke-linejoin:bevel;stroke:rgb(0,110,108);"/>
        </g>
        <g transform="matrix(4.16667,0,0,4.16667,0,0)">
            <clipPath id="_clip5">
                <path d="M499.272,560.385C490.749,555.66 486.394,563.72 486.394,563.72L495.195,564.368C485.097,567.333 487.876,577.338 487.876,577.338L496.771,569.278C494.826,573.633 499.087,576.875 499.087,576.875L501.682,565.943C501.682,565.943 510.998,576.672 513.905,587.548C510.186,589.434 504.427,592.668 499.892,593.235C493.643,594.016 486.392,598.198 486.392,598.198L486.392,603.156L539.646,603.156L539.599,595.252C538.036,594.47 535.048,588.547 530.36,588.156C526.388,587.826 521.302,586.377 518.414,586.179C514.871,580.268 508.903,570.93 503.856,566.057L517.615,566.777C513.91,557.884 504.461,561.034 504.461,561.034L510.853,555.66C509.44,555.089 508.169,554.852 507.037,554.852C501.561,554.851 499.272,560.385 499.272,560.385Z"/>
            </clipPath>
            <g clip-path="url(#_clip5)">
                <path d="M485.097,603.156L485.097,554.851L539.646,554.851L539.646,603.156L485.097,603.156Z" style="fill:url(#_Linear6);fill-rule:nonzero;"/>
            </g>
        </g>
        <g transform="matrix(4.16667,0,0,4.16667,0,0)">
            <g transform="matrix(1,0,0,1,-5.76,0)">
                <text x="483px" y="629.889px" style="font-family:'Arial-BoldMT', 'Arial', sans-serif;font-weight:700;font-size:28px;fill:white;">J<tspan x="497.872px 515.848px 533.824px " y="629.889px 629.889px 629.889px ">PEG</tspan></text>
            </g>
        </g>
    </g>
    <defs>
        <linearGradient id="_Linear2" x1="0" y1="0" x2="1" y2="0" gradientUnits="userSpaceOnUse" gradientTransform="matrix(-4.3e-06,-99,99,-4.3e-06,513,637.889)"><stop offset="0%" style="stop-color:rgb(0,107,106);stop-opacity:1"/><stop offset="100%" style="stop-color:rgb(23,187,186);stop-opacity:1"/></linearGradient>
        <linearGradient id="_Linear4" x1="0" y1="0" x2="1" y2="0" gradientUnits="userSpaceOnUse" gradientTransform="matrix(13.4999,-13.4999,13.4999,13.4999,522.001,565.89)"><stop offset="0%" style="stop-color:rgb(215,237,232);stop-opacity:1"/><stop offset="65%" style="stop-color:rgb(157,201,200);stop-opacity:1"/><stop offset="100%" style="stop-color:rgb(0,107,106);stop-opacity:1"/></linearGradient>
        <linearGradient id="_Linear6" x1="0" y1="0" x2="1" y2="0" gradientUnits="userSpaceOnUse" gradientTransform="matrix(-2.1e-06,-48.3047,48.3047,-2.1e-06,513.019,603.156)"><stop offset="0%" style="stop-color:rgb(0,129,129);stop-opacity:1"/><stop offset="100%" style="stop-color:rgb(0,56,54);stop-opacity:1"/></linearGradient>
    </defs>
</svg>
