
<svg width="100%" height="100%" viewBox="0 0 335 447" version="1.1" xmlns="http://www.w3.org/2000/svg" xmlns:xlink="http://www.w3.org/1999/xlink" xml:space="preserve" style="fill-rule:evenodd;clip-rule:evenodd;">
    <g transform="matrix(1,0,0,1,-845.32,-1169.86)">
        <g transform="matrix(4.16667,0,0,4.16667,0,0)">
            <clipPath id="_clip1">
                <path d="M207,284.888L207,383.888L279,383.888L279,311.888L252,284.888L207,284.888Z"/>
            </clipPath>
            <g clip-path="url(#_clip1)">
                <path d="M207,383.888L207,284.888L279,284.888L279,383.888L207,383.888Z" style="fill:url(#_Linear2);fill-rule:nonzero;"/>
            </g>
        </g>
        <g transform="matrix(4.16667,0,0,4.16667,0,0)">
            <path d="M252,284.889L279,311.889L279,383.889L207,383.889L207,284.889L252,284.889Z" style="fill:none;stroke-width:2px;stroke:rgb(193,81,39);"/>
        </g>
        <g transform="matrix(4.16667,0,0,4.16667,0,0)">
            <clipPath id="_clip3">
                <path d="M235.235,302.711C234.646,303.756 232.122,302.928 231.255,303.908C231.441,303.858 231.75,303.973 231.586,304.23C231.122,304.479 231.111,304.235 230.523,304.078C229.562,304.842 228.816,305.819 227.939,306.662C227.053,306.387 225.584,306.487 225.05,307.27C224.686,307.807 224.805,308.754 224.747,309.551C224.406,314.26 223.397,321.267 223.227,325.965C222.752,326.555 222.481,327.348 222.619,328.549C225.37,328.879 228.365,328.853 231.473,328.826C234.24,328.802 237.096,328.779 239.947,329.006L239.947,332.047C236.152,332.76 233.502,334.62 232.65,338.277C232.616,338.537 232.822,338.654 232.803,338.277C232.856,338.098 232.93,337.935 232.991,337.763C234.327,332.814 239.947,332.502 239.947,332.502L240.662,329.068L241.496,328.5L247.56,345.366L241.496,328.5L240.662,329.068L239.947,332.502C240.082,332.888 240.14,333.19 240.138,333.436C240.131,334.237 239.481,334.428 238.73,334.934C237.532,335.742 236.295,336.578 236.146,337.67C236.582,337.711 236.459,338.494 237.058,338.125C237.073,338.365 237.038,338.653 237.362,338.582C238.331,339.192 239.855,340.268 241.011,341.166C241.084,340.986 241.172,340.821 241.314,340.709C241.591,341.766 242.456,341.547 243.594,341.926C244.034,342.073 244.29,342.685 244.811,342.381C244.737,342.451 244.714,342.514 244.713,342.574C244.713,342.681 244.784,342.781 244.784,342.896C244.784,342.97 244.754,343.049 244.658,343.141C244.843,343.224 245.048,343.169 245.216,343.113C245.413,343.049 245.561,342.984 245.57,343.141C245.369,343.229 245.294,343.296 245.294,343.353C245.296,343.526 245.983,343.611 246.027,343.902C245.756,344.003 245.665,344.129 245.665,344.271C245.664,344.557 246.023,344.907 246.02,345.246C246.019,345.358 245.979,345.468 245.875,345.574C246.038,345.661 246.179,345.587 246.297,345.513C246.449,345.418 246.561,345.322 246.635,345.574C244.713,346.975 240.535,346.584 237.971,346.486C238.285,346.846 238.891,346.918 239.326,347.157C239.381,347.187 239.442,347.209 239.49,347.246C239.177,347.271 238.747,347.129 238.368,346.987C237.885,346.807 237.486,346.627 237.515,346.789C238.353,347.319 239.602,347.437 240.707,347.701L242.986,347.701C247.418,347.037 251.996,343.951 251.043,338.125C250.478,334.687 247.137,332.762 243.746,332.047L243.746,328.853C250.434,328.778 256.042,328.926 262.138,328.549C262.467,327.254 261.712,326.633 261.529,325.815C261.26,324.594 261.245,322.903 261.074,321.254C260.743,318.074 260.619,314.867 260.314,311.983C260.168,310.596 260.142,308.086 259.707,307.422C258.975,306.313 254.57,306.642 252.562,306.662C248.61,306.7 244.508,306.685 240.344,306.668C236.746,306.655 233.099,306.641 229.459,306.662C230.343,305.217 231.806,304.348 234.17,304.383C234.576,304.305 234.635,304.573 234.695,304.841C234.755,305.112 234.816,305.382 235.235,305.295C235.797,305.39 236.139,305.707 236.906,305.597C237.613,305.24 237.668,304.232 238.123,303.623C237.74,303.145 237.154,302.868 236.299,302.863L236.299,302.711L235.235,302.711ZM235.553,303.005C235.546,303.004 235.54,303.004 235.534,303.004C235.54,303.004 235.546,303.004 235.553,303.005ZM235.52,303.005C235.251,303.008 235.079,303.109 235.077,303.379C235.079,303.109 235.251,303.008 235.52,303.005ZM235.591,303.006C235.623,303.007 235.657,303.01 235.691,303.013C235.657,303.01 235.623,303.007 235.591,303.006ZM235.691,303.013C235.58,303.201 235.571,303.49 235.281,303.499C235.57,303.49 235.58,303.201 235.691,303.013ZM236.299,303.166C236.387,303.239 236.423,303.3 236.423,303.355C236.423,303.583 235.819,303.707 235.821,304.098C235.821,304.139 235.828,304.183 235.843,304.23C235.734,304.375 235.699,304.367 235.699,304.29C235.699,304.225 235.724,304.11 235.751,303.995C235.78,303.867 235.812,303.739 235.812,303.68C235.813,303.622 235.783,303.631 235.691,303.776C235.567,303.736 235.521,303.688 235.521,303.636C235.518,303.496 235.845,303.323 235.844,303.176C235.844,303.173 235.844,303.17 235.843,303.166C235.99,303.17 235.961,303.352 235.994,303.471C236.128,303.402 236.265,303.336 236.299,303.166ZM236.906,303.319C236.915,303.363 236.918,303.402 236.918,303.437C236.913,303.87 236.282,303.679 236.287,304.124C236.288,304.156 236.291,304.191 236.299,304.23C236.225,304.177 236.194,304.099 236.194,304.01C236.197,303.711 236.561,303.293 236.906,303.319ZM235.237,303.498C235.248,303.499 235.258,303.499 235.267,303.499C235.258,303.499 235.248,303.499 235.237,303.498ZM232.499,303.623C232.408,303.765 232.187,303.778 232.19,304.013C232.19,304.033 232.192,304.055 232.195,304.078C232.066,304.057 232.011,303.97 232.012,303.872C232.014,303.686 232.222,303.465 232.499,303.623ZM230.674,304.23C230.719,304.302 230.739,304.361 230.74,304.411C230.744,304.762 229.793,304.664 229.611,305.295C229.557,305.303 229.534,305.291 229.533,305.264C229.532,305.104 230.373,304.41 230.674,304.23ZM226.189,309.906C226.186,309.318 226.53,308.73 227.331,308.789C227.339,308.83 227.343,308.869 227.344,308.906C227.347,309.262 227.025,309.469 227.027,309.661C227.028,309.772 227.138,309.878 227.483,310.005C227.298,310.574 226.842,310.083 226.839,309.516C226.839,309.427 226.849,309.335 226.875,309.246C226.672,309.487 226.405,309.662 226.403,310.104C226.403,310.167 226.408,310.236 226.419,310.311C226.668,310.617 226.928,310.916 227.483,310.918C226.685,311.298 226.193,310.601 226.189,309.906ZM228.091,309.094C228.585,308.613 228.94,309.214 228.937,309.854C228.937,309.877 228.937,309.901 228.936,309.924C228.91,310.466 228.622,311.009 227.939,310.918C228.229,310.746 228.553,310.205 228.552,309.746C228.552,309.461 228.427,309.208 228.091,309.094ZM241.011,329.613C241.145,329.681 241.283,329.748 241.314,329.918C241.628,332.207 241.79,334.646 241.791,337.245C241.791,337.785 241.784,338.331 241.771,338.885C241.014,339.033 240.865,338.574 240.403,338.429C240.787,336.274 240.734,332.381 241.011,329.613ZM247.543,345.384C247.349,345.592 245.482,347.487 241.992,347.495C245.481,347.487 247.349,345.592 247.543,345.384ZM241.956,347.495C241.961,347.495 241.966,347.495 241.971,347.495C241.966,347.495 241.961,347.495 241.956,347.495ZM235.994,303.471C235.961,303.352 235.99,303.17 235.843,303.166C235.844,303.17 235.844,303.173 235.844,303.176C235.845,303.323 235.518,303.496 235.521,303.636C235.521,303.688 235.567,303.736 235.691,303.776C235.783,303.631 235.813,303.622 235.812,303.68C235.812,303.739 235.78,303.867 235.751,303.995C235.724,304.11 235.699,304.225 235.699,304.29C235.699,304.367 235.734,304.375 235.843,304.23C235.828,304.183 235.821,304.139 235.821,304.098C235.819,303.707 236.423,303.583 236.423,303.355C236.423,303.3 236.387,303.239 236.299,303.166C236.265,303.336 236.128,303.402 235.994,303.471ZM236.194,304.01C236.194,304.099 236.225,304.177 236.299,304.23C236.291,304.191 236.288,304.156 236.287,304.124C236.282,303.679 236.913,303.87 236.918,303.437C236.918,303.402 236.915,303.363 236.906,303.319C236.896,303.318 236.886,303.317 236.876,303.317C236.54,303.317 236.197,303.719 236.194,304.01ZM232.012,303.872C232.011,303.97 232.066,304.057 232.195,304.078C232.192,304.055 232.19,304.033 232.19,304.013C232.187,303.778 232.408,303.765 232.499,303.623C232.432,303.585 232.37,303.569 232.314,303.569C232.134,303.569 232.014,303.73 232.012,303.872ZM231.131,304.078C231.167,304.016 231.209,303.961 231.255,303.908C231.172,303.931 231.112,303.986 231.131,304.078ZM229.533,305.264C229.534,305.291 229.557,305.303 229.611,305.295C229.793,304.664 230.744,304.762 230.74,304.411C230.739,304.361 230.719,304.302 230.674,304.23C230.373,304.41 229.532,305.104 229.533,305.264ZM226.189,309.906C226.193,310.601 226.685,311.298 227.483,310.918C226.928,310.916 226.668,310.617 226.419,310.311C226.408,310.236 226.403,310.167 226.403,310.104C226.405,309.662 226.672,309.487 226.875,309.246C226.849,309.335 226.839,309.427 226.839,309.516C226.842,310.083 227.298,310.574 227.483,310.005C227.138,309.878 227.028,309.772 227.027,309.661C227.025,309.469 227.347,309.262 227.344,308.906C227.343,308.869 227.339,308.83 227.331,308.789C227.294,308.786 227.258,308.785 227.223,308.785C226.499,308.785 226.186,309.345 226.189,309.906ZM228.091,309.094C228.427,309.208 228.552,309.461 228.552,309.746C228.553,310.205 228.229,310.746 227.939,310.918C228.622,311.009 228.91,310.466 228.936,309.924C228.937,309.901 228.937,309.877 228.937,309.854C228.94,309.376 228.742,308.92 228.436,308.92C228.332,308.92 228.216,308.972 228.091,309.094ZM240.403,338.429C240.865,338.574 241.014,339.033 241.771,338.885C241.784,338.331 241.791,337.785 241.791,337.245C241.79,334.646 241.628,332.207 241.314,329.918C241.283,329.748 241.145,329.681 241.011,329.613C240.734,332.381 240.787,336.274 240.403,338.429ZM239.947,332.502C239.947,332.502 234.327,332.814 232.991,337.763C232.811,338.429 232.703,339.175 232.703,340.021L232.703,340.047C232.643,340.156 232.59,340.455 232.65,340.709C233.088,343.617 235.023,345.836 237.211,346.486C237.107,346.416 236.654,346.266 236.637,346.137C237.199,346.449 237.842,346.728 238.578,346.957C238.835,347.037 239.081,347.095 239.326,347.157C238.891,346.918 238.285,346.846 237.971,346.486C240.535,346.584 244.713,346.975 246.635,345.574C246.561,345.322 246.449,345.418 246.297,345.513C246.179,345.587 246.038,345.661 245.875,345.574C245.979,345.468 246.019,345.358 246.02,345.246C246.023,344.907 245.664,344.557 245.665,344.271C245.665,344.129 245.756,344.003 246.027,343.902C245.983,343.611 245.296,343.526 245.294,343.353C245.294,343.296 245.369,343.229 245.57,343.141C245.561,342.984 245.413,343.049 245.216,343.113C245.048,343.169 244.843,343.224 244.658,343.141C244.754,343.049 244.784,342.97 244.784,342.896C244.784,342.781 244.713,342.681 244.713,342.574C244.714,342.514 244.737,342.451 244.811,342.381C244.29,342.685 244.034,342.073 243.594,341.926C242.456,341.547 241.591,341.766 241.314,340.709C241.172,340.821 241.084,340.986 241.011,341.166C239.855,340.268 238.331,339.192 237.362,338.582C237.038,338.653 237.073,338.365 237.058,338.125C236.459,338.494 236.582,337.711 236.146,337.67C236.295,336.578 237.532,335.742 238.73,334.934C239.481,334.428 240.131,334.237 240.138,333.436C240.14,333.19 240.082,332.888 239.947,332.502ZM232.748,340.002C232.744,340.002 232.739,340.004 232.734,340.007C232.739,340.004 232.744,340.002 232.748,340.002ZM232.765,340.011C232.788,340.036 232.805,340.118 232.805,340.282C232.805,340.118 232.788,340.036 232.765,340.011ZM232.721,340.02C232.715,340.027 232.709,340.036 232.703,340.047C232.709,340.036 232.715,340.027 232.721,340.02ZM232.803,340.407C232.985,341.345 233.482,342.406 234.019,343.141C234.985,344.466 236.363,345.176 237.515,346.332C236.363,345.176 234.985,344.466 234.019,343.141C233.482,342.406 232.985,341.345 232.803,340.407ZM236.636,346.126C236.636,346.13 236.636,346.133 236.637,346.137C236.636,346.133 236.636,346.13 236.636,346.126ZM232.499,339.037C232.478,339.237 232.476,340.138 232.65,339.646C232.666,339.488 232.671,338.892 232.587,338.892C232.564,338.892 232.535,338.934 232.499,339.037Z"/>
            </clipPath>
            <g clip-path="url(#_clip3)">
                <path d="M222.481,347.701L222.481,302.711L262.467,302.711L262.467,347.701L222.481,347.701Z" style="fill:url(#_Linear4);fill-rule:nonzero;"/>
            </g>
        </g>
        <g transform="matrix(4.16667,0,0,4.16667,0,0)">
            <clipPath id="_clip5">
                <path d="M252,311.888L279,311.888L252,284.888L252,311.888Z"/>
            </clipPath>
            <g clip-path="url(#_clip5)">
                <path d="M238.5,298.388L252,284.888L279,311.888L265.5,325.388L238.5,298.388Z" style="fill:url(#_Linear6);fill-rule:nonzero;"/>
            </g>
        </g>
        <g transform="matrix(4.16667,0,0,4.16667,0,0)">
            <path d="M252,284.889L279,311.889L252,311.889L252,284.889Z" style="fill:none;stroke-width:2px;stroke-linejoin:bevel;stroke:rgb(193,81,39);"/>
        </g>
        <g transform="matrix(4.16667,0,0,4.16667,0,0)">
            <text x="214px" y="375.889px" style="font-family:'Arial-BoldMT', 'Arial', sans-serif;font-weight:700;font-size:28px;fill:white;">KEY</text>
        </g>
    </g>
    <defs>
        <linearGradient id="_Linear2" x1="0" y1="0" x2="1" y2="0" gradientUnits="userSpaceOnUse" gradientTransform="matrix(-4.3e-06,-99,99,-4.3e-06,243,383.889)"><stop offset="0%" style="stop-color:rgb(204,86,39);stop-opacity:1"/><stop offset="100%" style="stop-color:rgb(247,149,34);stop-opacity:1"/></linearGradient>
        <linearGradient id="_Linear4" x1="0" y1="0" x2="1" y2="0" gradientUnits="userSpaceOnUse" gradientTransform="matrix(-2e-06,-44.9902,44.9902,-2e-06,242.402,347.701)"><stop offset="0%" style="stop-color:rgb(215,92,37);stop-opacity:1"/><stop offset="100%" style="stop-color:rgb(179,75,32);stop-opacity:1"/></linearGradient>
        <linearGradient id="_Linear6" x1="0" y1="0" x2="1" y2="0" gradientUnits="userSpaceOnUse" gradientTransform="matrix(13.4999,-13.4999,13.4999,13.4999,252,311.889)"><stop offset="0%" style="stop-color:rgb(254,252,227);stop-opacity:1"/><stop offset="71%" style="stop-color:rgb(249,220,182);stop-opacity:1"/><stop offset="90%" style="stop-color:rgb(235,160,101);stop-opacity:1"/><stop offset="100%" style="stop-color:rgb(224,111,38);stop-opacity:1"/></linearGradient>
    </defs>
</svg>
