
<svg width="100%" height="100%" viewBox="0 0 81 108" version="1.1" xmlns="http://www.w3.org/2000/svg" xmlns:xlink="http://www.w3.org/1999/xlink" xml:space="preserve" xmlns:serif="http://www.serif.com/" style="fill-rule:evenodd;clip-rule:evenodd;">
    <clipPath id="_clip1">
        <path d="M49.123,4.123L76.123,31.123L76.123,103.123L4.123,103.123L4.123,4.123L49.123,4.123Z"/>
    </clipPath>
    <g clip-path="url(#_clip1)">
        <rect x="4.123" y="4.123" width="72" height="99" style="fill:url(#_Linear2);fill-rule:nonzero;"/>
    </g>
    <path d="M49.123,4.123L76.123,31.123L76.123,103.123L4.123,103.123L4.123,4.123L49.123,4.123Z" style="fill:none;stroke:rgb(113,146,161);stroke-width:2px;"/>
    <clipPath id="_clip3">
        <path d="M31.839,32.131C30.938,32.535 29.939,33.183 29.087,33.336C28.533,33.436 27.901,33.401 27.297,33.367C26.897,33.344 26.509,33.321 26.163,33.336C25.179,33.38 23.95,33.525 22.894,33.68C21.85,33.832 20.58,33.992 19.969,34.368C18.494,35.277 18.048,39.178 17.562,41.421C17.37,42.308 17.027,43.114 16.874,44.001C16.542,45.917 16.417,47.94 16.358,49.851C16.242,53.505 15.895,58.85 17.734,60.172C18.12,60.45 19.565,60.863 19.969,60.687C20.058,60.65 20.592,60.188 20.658,60C20.779,59.654 20.471,59.291 20.485,58.796C20.511,57.972 20.316,56.853 20.313,56.043C20.309,53.846 20.759,51.34 21.346,50.366C21.389,50.295 21.634,50.269 21.689,50.194C21.811,50.035 21.738,49.816 21.862,49.679C22.258,49.24 22.973,48.811 23.41,48.646C24.739,48.146 25.414,48.77 25.99,49.507C27.099,50.92 27.303,53.169 27.367,55.527C27.378,55.933 27.389,56.484 27.367,56.904C27.342,57.403 27.12,58.029 27.194,58.28C27.471,59.207 29.021,59.62 29.604,60C29.585,60.329 29.715,60.664 29.925,60.973C30.236,61.431 30.719,61.83 31.153,62.064C32.763,62.933 36.713,62.411 37.517,61.376C37.586,61.287 37.667,61.138 37.744,60.973C37.877,60.688 37.999,60.352 38.032,60.172C38.394,58.212 37.766,56.492 38.032,54.494C40.046,55.194 43.32,55.098 45.773,54.839C46.176,55.857 45.562,57.012 45.945,58.108C46.109,58.573 46.864,59.111 47.838,59.656C48.067,59.784 48.346,59.722 48.525,59.828C48.516,59.822 48.687,59.99 48.698,60C49.059,60.346 49.963,60.802 50.246,60.86C50.522,60.917 50.818,60.953 51.123,60.973C51.466,60.993 51.822,60.993 52.177,60.973C53.678,60.884 55.164,60.44 55.579,59.828C56.273,58.804 55.832,56.698 55.751,54.839C55.68,53.211 55.498,51.129 55.751,49.851C55.84,49.402 56.209,48.961 56.439,48.474C57.304,46.644 58.155,43.641 57.815,40.733C57.664,39.433 57.01,38.338 56.783,37.292C57.739,37.372 58.674,37.324 59.578,37.278C60.58,37.225 61.545,37.172 62.46,37.292C63.53,37.433 64.388,38.129 65.383,37.98C65.629,37.504 66.149,37.152 66.245,36.432C66.341,35.702 66.065,34.872 65.728,34.368C64.315,34.168 63.276,35.435 61.944,35.572C61.549,35.612 60.931,35.425 60.395,35.4C59.744,35.37 59.018,35.414 58.29,35.459C57.187,35.524 56.082,35.591 55.235,35.4C54.186,35.164 53.429,34.143 52.483,33.68C52.238,33.561 51.926,33.636 51.622,33.508C51.361,33.398 51.164,33.248 50.935,33.164C49.795,32.745 48.685,32.365 47.666,32.131C45.638,31.667 42.846,31.603 40.269,31.788C39.501,31.842 38.652,32.243 37.86,32.131C37.23,32.043 37.131,31.665 36.656,31.444C36.161,31.214 35.664,31.123 35.177,31.123C33.92,31.123 32.733,31.731 31.839,32.131Z"/>
    </clipPath>
    <g clip-path="url(#_clip3)">
        <rect x="15.895" y="31.123" width="50.446" height="31.81" style="fill:url(#_Linear4);fill-rule:nonzero;"/>
    </g>
    <path d="M35.65,35.521L35.676,35.469C35.665,35.485 35.656,35.502 35.65,35.521Z" style="fill:url(#_Linear5);fill-rule:nonzero;"/>
    <g transform="matrix(1,0,0,1,11.123,95.803)">
        <text x="0px" y="0px" style="font-family:'Arial-BoldMT', 'Arial', sans-serif;font-weight:700;font-size:28px;fill:rgb(76,108,123);">PHP</text>
    </g>
    <clipPath id="_clip6">
        <path d="M49.123,4.123L76.123,31.123L49.123,31.123L49.123,4.123Z"/>
    </clipPath>
    <g clip-path="url(#_clip6)">
        <path d="M35.623,17.623L49.123,4.123L76.123,31.123L62.623,44.623L35.623,17.623Z" style="fill:url(#_Linear7);fill-rule:nonzero;"/>
    </g>
    <path d="M49.123,4.123L76.123,31.123L49.123,31.123L49.123,4.123Z" style="fill:none;stroke:rgb(113,146,161);stroke-width:2px;stroke-linejoin:bevel;"/>
    <defs>
        <linearGradient id="_Linear2" x1="0" y1="0" x2="1" y2="0" gradientUnits="userSpaceOnUse" gradientTransform="matrix(-4.3e-06,-98.9995,98.9995,-4.3e-06,40.1231,103.123)"><stop offset="0" style="stop-color:rgb(200,212,219);stop-opacity:1"/><stop offset="1" style="stop-color:white;stop-opacity:1"/></linearGradient>
        <linearGradient id="_Linear4" x1="0" y1="0" x2="1" y2="0" gradientUnits="userSpaceOnUse" gradientTransform="matrix(-1.4e-06,-31.3804,31.3804,-1.4e-06,41.2598,62.5025)"><stop offset="0" style="stop-color:rgb(173,204,220);stop-opacity:1"/><stop offset="1" style="stop-color:rgb(76,108,123);stop-opacity:1"/></linearGradient>
        <linearGradient id="_Linear5" x1="0" y1="0" x2="1" y2="0" gradientUnits="userSpaceOnUse" gradientTransform="matrix(3.16925e-18,-0.0517578,0.0517578,3.16925e-18,35.6631,35.521)"><stop offset="0" style="stop-color:rgb(173,204,220);stop-opacity:1"/><stop offset="1" style="stop-color:rgb(76,108,123);stop-opacity:1"/></linearGradient>
        <linearGradient id="_Linear7" x1="0" y1="0" x2="1" y2="0" gradientUnits="userSpaceOnUse" gradientTransform="matrix(13.5003,-13.5003,13.5003,13.5003,49.1231,31.1236)"><stop offset="0" style="stop-color:white;stop-opacity:1"/><stop offset="0.81" style="stop-color:rgb(197,209,216);stop-opacity:1"/><stop offset="1" style="stop-color:rgb(146,166,177);stop-opacity:1"/></linearGradient>
    </defs>
</svg>
