
<svg width="100%" height="100%" viewBox="0 0 335 447" version="1.1" xmlns="http://www.w3.org/2000/svg" xmlns:xlink="http://www.w3.org/1999/xlink" xml:space="preserve" style="fill-rule:evenodd;clip-rule:evenodd;">
    <g transform="matrix(1,0,0,1,-95.3204,-78.19)">
        <g transform="matrix(4.16667,0,0,4.16667,0,0)">
            <clipPath id="_clip1">
                <path d="M27,22.888L27,121.888L99,121.888L99,49.888L72,22.888L27,22.888Z"/>
            </clipPath>
            <g clip-path="url(#_clip1)">
                <path d="M27,121.888L27,22.888L99,22.888L99,121.888L27,121.888Z" style="fill:url(#_Linear2);fill-rule:nonzero;"/>
            </g>
        </g>
        <g transform="matrix(4.16667,0,0,4.16667,0,0)">
            <path d="M72,22.889L99,49.889L99,121.889L27,121.889L27,22.889L72,22.889Z" style="fill:none;stroke-width:2px;stroke:rgb(185,156,1);"/>
        </g>
        <g transform="matrix(4.16667,0,0,4.16667,0,0)">
            <clipPath id="_clip3">
                <path d="M72,49.888L99,49.888L72,22.888L72,49.888Z"/>
            </clipPath>
            <g clip-path="url(#_clip3)">
                <path d="M58.5,36.388L72,22.888L99,49.888L85.5,63.388L58.5,36.388Z" style="fill:url(#_Linear4);fill-rule:nonzero;"/>
            </g>
        </g>
        <g transform="matrix(4.16667,0,0,4.16667,0,0)">
            <path d="M72,22.889L99,49.889L72,49.889L72,22.889Z" style="fill:none;stroke-width:2px;stroke-linejoin:bevel;stroke:rgb(185,156,1);"/>
        </g>
        <g transform="matrix(4.16667,0,0,4.16667,0,0)">
            <g transform="matrix(1,0,0,1,5.76,0)">
                <text x="30px" y="114.889px" style="font-family:'Arial-BoldMT', 'Arial', sans-serif;font-weight:700;font-size:28px;fill:rgb(160,120,1);">T<tspan x="44.325px 63.846px " y="114.889px 114.889px ">AR</tspan></text>
            </g>
        </g>
    </g>
    <defs>
        <linearGradient id="_Linear2" x1="0" y1="0" x2="1" y2="0" gradientUnits="userSpaceOnUse" gradientTransform="matrix(-4.3e-06,-99,99,-4.3e-06,63,121.889)"><stop offset="0%" style="stop-color:rgb(239,196,3);stop-opacity:1"/><stop offset="100%" style="stop-color:white;stop-opacity:1"/></linearGradient>
        <linearGradient id="_Linear4" x1="0" y1="0" x2="1" y2="0" gradientUnits="userSpaceOnUse" gradientTransform="matrix(13.4999,-13.4999,13.4999,13.4999,72.0005,49.8892)"><stop offset="0%" style="stop-color:white;stop-opacity:1"/><stop offset="71%" style="stop-color:rgb(250,231,175);stop-opacity:1"/><stop offset="100%" style="stop-color:rgb(239,196,3);stop-opacity:1"/></linearGradient>
    </defs>
</svg>
