<svg height="64" viewBox="0 0 128 128" width="64" xmlns="http://www.w3.org/2000/svg" xmlns:xlink="http://www.w3.org/1999/xlink"><linearGradient id="a" gradientUnits="userSpaceOnUse" x1="0" x2="128" y1="128" y2="0"><stop offset="0" stop-color="#333"/><stop offset="1" stop-color="#5d5d5d"/></linearGradient><path d="m29.09375 11.234375c-3.1838 0-5.71875 2.566196-5.71875 5.75v94.031255c0 3.1838 2.53495 5.75 5.71875 5.75h69.8125c3.1838 0 5.71875-2.5662 5.71875-5.75v-70.656255h-21.03125c-4.306108 0-8.0625-3.141109-8.0625-7.3125v-21.8125zm50.4375 0v21.8125c0 1.714122 1.631968 3.3125 4.0625 3.3125h21.03125zm-47.0625 40.53125h2.96875v2.28125c0 .579091.48341 1.03125 1.0625 1.03125h4.53125c.57909 0 1.03125-.452159 1.03125-1.03125v-2.28125h2.96875v3.5c0 2.509396 2.021853 4.53125 4.53125 4.53125h28.90625c2.509397 0 4.53125-2.021854 4.53125-4.53125v-3.5h2.96875v2.28125c0 .579091.483411 1.03125 1.0625 1.03125h4.5c.579095 0 1.0625-.452159 1.0625-1.03125v-2.28125h2.96875v52.625005h-2.96875v-2.25c0-.57909-.483405-1.0625-1.0625-1.0625h-4.5c-.579089 0-1.0625.48341-1.0625 1.0625v2.25h-2.96875v-3.5c0-2.509404-2.021853-4.500005-4.53125-4.500005h-28.90625c-2.509397 0-4.53125 1.990601-4.53125 4.500005v3.5h-2.96875v-2.25c0-.57909-.45216-1.0625-1.03125-1.0625h-4.53125c-.57909 0-1.0625.48341-1.0625 1.0625v2.25h-2.96875zm4.03125 6.0625c-.57909 0-1.0625.452158-1.0625 1.03125v3.84375c0 .579092.48341 1.03125 1.0625 1.03125h4.53125c.57909 0 1.03125-.452158 1.03125-1.03125v-3.84375c0-.579092-.45216-1.03125-1.03125-1.03125zm50.53125 0c-.579089 0-1.0625.452158-1.0625 1.03125v3.84375c0 .579092.483411 1.03125 1.0625 1.03125h4.5c.579095 0 1.0625-.452158 1.0625-1.03125v-3.84375c0-.579092-.483405-1.03125-1.0625-1.03125zm-37.46875 7.03125c-2.509397 0-4.53125 1.990603-4.53125 4.5v17.4375c0 2.509397 2.021853 4.53125 4.53125 4.53125h28.90625c2.509397 0 4.53125-2.021853 4.53125-4.53125v-17.4375c0-2.509397-2.021853-4.5-4.53125-4.5zm-13.0625 1.625c-.57909 0-1.0625.452158-1.0625 1.03125v3.84375c0 .579092.48341 1.03125 1.0625 1.03125h4.53125c.57909 0 1.03125-.452158 1.03125-1.03125v-3.84375c0-.579092-.45216-1.03125-1.03125-1.03125zm50.53125 0c-.579089 0-1.0625.452158-1.0625 1.03125v3.84375c0 .579092.483411 1.03125 1.0625 1.03125h4.5c.579095 0 1.0625-.452158 1.0625-1.03125v-3.84375c0-.579092-.483405-1.03125-1.0625-1.03125zm-50.53125 8.625c-.57909 0-1.0625.483408-1.0625 1.0625v3.84375c0 .579092.48341 1.03125 1.0625 1.03125h4.53125c.57909 0 1.03125-.452158 1.03125-1.03125v-3.84375c0-.579092-.45216-1.0625-1.03125-1.0625zm50.53125 0c-.579089 0-1.0625.483408-1.0625 1.0625v3.84375c0 .579092.483411 1.03125 1.0625 1.03125h4.5c.579095 0 1.0625-.452158 1.0625-1.03125v-3.84375c0-.579092-.483405-1.0625-1.0625-1.0625zm-50.53125 8.65625c-.57909 0-1.0625.483408-1.0625 1.0625v3.8125c0 .579092.48341 1.0625 1.0625 1.0625h4.53125c.57909 0 1.03125-.483408 1.03125-1.0625v-3.8125c0-.579092-.45216-1.0625-1.03125-1.0625zm50.53125 0c-.579089 0-1.0625.483408-1.0625 1.0625v3.8125c0 .579092.483411 1.0625 1.0625 1.0625h4.5c.579095 0 1.0625-.483408 1.0625-1.0625v-3.8125c0-.579092-.483405-1.0625-1.0625-1.0625zm-50.53125 8.65625c-.57909 0-1.0625.483408-1.0625 1.0625v3.8125c0 .579096.48341 1.0625 1.0625 1.0625h4.53125c.57909 0 1.03125-.483404 1.03125-1.0625v-3.8125c0-.579092-.45216-1.0625-1.03125-1.0625zm50.53125 0c-.579089 0-1.0625.483408-1.0625 1.0625v3.8125c0 .579096.483411 1.0625 1.0625 1.0625h4.5c.579095 0 1.0625-.483404 1.0625-1.0625v-3.8125c0-.579092-.483405-1.0625-1.0625-1.0625z" fill="url(#a)"/></svg>