<svg height="64" viewBox="0 0 64 64" width="64" xmlns="http://www.w3.org/2000/svg" xmlns:xlink="http://www.w3.org/1999/xlink"><defs><linearGradient id="a" gradientUnits="userSpaceOnUse" x1="214" x2="228" y1="313.36" y2="327.36"><stop offset="0" stop-color="#060606"/><stop offset="1" stop-opacity="0"/></linearGradient><linearGradient id="b" gradientTransform="translate(126 -36)" gradientUnits="userSpaceOnUse" x2="0" y1="392.36" y2="336.36"><stop offset="0" stop-color="#fff" stop-opacity="0"/><stop offset="1" stop-color="#fff" stop-opacity=".2"/></linearGradient><path id="c" d="m184 357.36v-58h30l14 14v44h-14z"/></defs><g transform="translate(-174 -296.36)"><use fill="#ff8b23" xlink:href="#c"/><g transform="scale(1 -1)"><path d="m184-300.36h30v1h-30z" fill="#fff" opacity=".5"/><path d="m184-357.36h44v1h-44z" opacity=".25"/></g><g fill-rule="evenodd"><path d="m228 313.36-14-14v14z" fill="#fff" opacity=".5"/><path d="m214 313.36 14 14v-14z" fill="url(#a)" opacity=".2"/></g><use fill="url(#b)" xlink:href="#c"/><path d="m195 318.36v2h-2v20h26v-20h-2v-2zm1 1h20v1h-20zm-2 2h24v18h-24zm10 5v8l5-4z" fill="#fff" opacity=".9"/></g></svg>