
<svg width="100%" height="100%" viewBox="0 0 335 447" version="1.1" xmlns="http://www.w3.org/2000/svg" xmlns:xlink="http://www.w3.org/1999/xlink" xml:space="preserve" style="fill-rule:evenodd;clip-rule:evenodd;">
    <g transform="matrix(1,0,0,1,-4220.32,-1703.19)">
        <g transform="matrix(4.16667,0,0,4.16667,0,0)">
            <clipPath id="_clip1">
                <path d="M1017,412.889L1017,511.889L1089,511.889L1089,439.889L1062,412.889L1017,412.889Z"/>
            </clipPath>
            <g clip-path="url(#_clip1)">
                <path d="M1017,511.889L1017,412.889L1089,412.889L1089,511.889L1017,511.889Z" style="fill:url(#_Linear2);fill-rule:nonzero;"/>
            </g>
        </g>
        <g transform="matrix(4.16667,0,0,4.16667,0,0)">
            <path d="M1062,412.889L1089,439.889L1089,511.889L1017,511.889L1017,412.889L1062,412.889Z" style="fill:none;stroke-width:2px;stroke:rgb(82,130,39);"/>
        </g>
        <g transform="matrix(4.16667,0,0,4.16667,0,0)">
            <clipPath id="_clip3">
                <path d="M1058.75,436.889L1058.75,438.923C1060.53,439.097 1061.66,439.309 1062.15,439.561C1062.63,439.813 1062.88,440.191 1062.88,440.695C1062.88,441.13 1062.46,441.943 1061.62,443.131C1060.77,444.321 1058.71,446.868 1055.43,450.775C1054.32,449.074 1053.33,447.553 1052.45,446.218C1051.57,444.88 1050.92,443.865 1050.51,443.171C1050.02,442.372 1049.69,441.786 1049.53,441.413C1049.36,441.039 1049.28,440.73 1049.28,440.488C1049.28,440.001 1049.7,439.636 1050.55,439.391C1051.39,439.149 1052.69,438.993 1054.44,438.923L1054.44,436.889L1031.84,436.889L1031.84,438.923C1032.62,438.975 1033.29,439.065 1033.85,439.196C1034.41,439.327 1034.91,439.488 1035.37,439.678C1036.27,440.027 1037.14,440.601 1037.96,441.399C1038.79,442.198 1039.48,442.999 1040.04,443.798C1041.15,445.396 1042.5,447.335 1044.1,449.612C1045.7,451.888 1047.3,454.233 1048.89,456.65C1047.21,458.614 1045.6,460.466 1044.07,462.203C1042.55,463.941 1041.17,465.497 1039.96,466.87C1039.12,467.827 1038.31,468.665 1037.53,469.386C1036.75,470.108 1035.85,470.702 1034.84,471.173C1034.41,471.365 1033.97,471.51 1033.52,471.614C1033.08,471.719 1032.48,471.798 1031.74,471.851L1031.74,473.883L1046.1,473.883L1046.1,471.851C1045.29,471.781 1044.59,471.684 1044,471.564C1043.41,471.442 1042.99,471.312 1042.75,471.173C1042.42,471.015 1042.21,470.854 1042.13,470.691C1042.06,470.524 1042.02,470.322 1042.02,470.077C1042.02,469.626 1042.51,468.704 1043.49,467.314C1044.47,465.923 1046.79,463.117 1050.43,458.894C1051.53,460.529 1052.58,462.115 1053.6,463.652C1054.62,465.19 1055.43,466.471 1056.04,467.497C1056.44,468.14 1056.75,468.708 1056.98,469.204C1057.2,469.698 1057.32,470.06 1057.32,470.286C1057.32,470.702 1057,471.038 1056.38,471.29C1055.75,471.542 1054.36,471.727 1052.2,471.851L1052.2,473.883L1074.75,473.883L1074.75,471.851C1073.87,471.798 1073.15,471.702 1072.62,471.564C1072.08,471.425 1071.6,471.276 1071.18,471.12C1070.29,470.772 1069.44,470.195 1068.61,469.386C1067.79,468.577 1067.11,467.775 1066.59,466.975C1065.25,465.101 1063.84,463.095 1062.34,460.96C1060.85,458.825 1059.05,456.177 1056.94,453.016C1058.65,451.067 1060.09,449.417 1061.26,448.067C1062.43,446.719 1063.66,445.33 1064.95,443.902C1065.82,442.946 1066.62,442.112 1067.35,441.399C1068.08,440.686 1068.98,440.087 1070.06,439.601C1070.62,439.375 1071.11,439.21 1071.53,439.104C1071.96,439.001 1072.5,438.94 1073.16,438.923L1073.16,436.889L1058.75,436.889Z"/>
            </clipPath>
            <g clip-path="url(#_clip3)">
                <path d="M1013.29,455.437L1052.5,416.228L1092.45,456.181L1053.25,495.391L1013.29,455.437Z" style="fill:url(#_Linear4);fill-rule:nonzero;"/>
            </g>
        </g>
        <g transform="matrix(4.16667,0,0,4.16667,0,0)">
            <clipPath id="_clip5">
                <path d="M1062,439.889L1089,439.889L1062,412.889L1062,439.889Z"/>
            </clipPath>
            <g clip-path="url(#_clip5)">
                <path d="M1048.5,426.389L1062,412.889L1089,439.889L1075.5,453.389L1048.5,426.389Z" style="fill:url(#_Linear6);fill-rule:nonzero;"/>
            </g>
        </g>
        <g transform="matrix(4.16667,0,0,4.16667,0,0)">
            <path d="M1062,412.889L1089,439.889L1062,439.889L1062,412.889Z" style="fill:none;stroke-width:2px;stroke-linejoin:bevel;stroke:rgb(82,130,39);"/>
        </g>
        <g transform="matrix(4.16667,0,0,4.16667,0,0)">
            <g transform="matrix(1,0,0,1,92.4404,-1.42109e-14)">
                <text x="932px" y="503.889px" style="font-family:'Arial-BoldMT', 'Arial', sans-serif;font-weight:700;font-size:22px;fill:white;">XLSX</text>
            </g>
        </g>
    </g>
    <defs>
        <linearGradient id="_Linear2" x1="0" y1="0" x2="1" y2="0" gradientUnits="userSpaceOnUse" gradientTransform="matrix(-4.3e-06,-98.9995,98.9995,-4.3e-06,1053,511.889)"><stop offset="0%" style="stop-color:rgb(81,133,42);stop-opacity:1"/><stop offset="100%" style="stop-color:rgb(133,196,64);stop-opacity:1"/></linearGradient>
        <linearGradient id="_Linear4" x1="0" y1="0" x2="1" y2="0" gradientUnits="userSpaceOnUse" gradientTransform="matrix(39.2092,-39.2092,39.2092,39.2092,1033.27,475.415)"><stop offset="0%" style="stop-color:rgb(97,149,47);stop-opacity:1"/><stop offset="100%" style="stop-color:rgb(36,77,10);stop-opacity:1"/></linearGradient>
        <linearGradient id="_Linear6" x1="0" y1="0" x2="1" y2="0" gradientUnits="userSpaceOnUse" gradientTransform="matrix(13.5003,-13.5003,13.5003,13.5003,1062,439.889)"><stop offset="0%" style="stop-color:rgb(242,246,213);stop-opacity:1"/><stop offset="68%" style="stop-color:rgb(203,219,167);stop-opacity:1"/><stop offset="100%" style="stop-color:rgb(97,153,50);stop-opacity:1"/></linearGradient>
    </defs>
</svg>
