
<svg width="100%" height="100%" viewBox="0 0 335 447" version="1.1" xmlns="http://www.w3.org/2000/svg" xmlns:xlink="http://www.w3.org/1999/xlink" xml:space="preserve" style="fill-rule:evenodd;clip-rule:evenodd;">
    <g transform="matrix(1,0,0,1,-470.32,-636.525)">
        <g transform="matrix(4.16667,0,0,4.16667,0,0)">
            <clipPath id="_clip1">
                <path d="M162,156.889L189,183.889L189,255.889L117,255.889L117,156.889L162,156.889Z"/>
            </clipPath>
            <g clip-path="url(#_clip1)">
                <path d="M117,255.889L117,156.889L189,156.889L189,255.889L117,255.889Z" style="fill:url(#_Linear2);fill-rule:nonzero;"/>
            </g>
        </g>
        <g transform="matrix(4.16667,0,0,4.16667,0,0)">
            <path d="M162,156.889L189,183.889L189,255.889L117,255.889L117,156.889L162,156.889Z" style="fill:none;stroke-width:2px;stroke:rgb(113,146,161);"/>
        </g>
        <g transform="matrix(4.16667,0,0,4.16667,0,0)">
            <clipPath id="_clip3">
                <path d="M162,156.889L189,183.889L162,183.889L162,156.889Z"/>
            </clipPath>
            <g clip-path="url(#_clip3)">
                <path d="M148.5,170.389L162,156.889L189,183.889L175.5,197.389L148.5,170.389Z" style="fill:url(#_Linear4);fill-rule:nonzero;"/>
            </g>
        </g>
        <g transform="matrix(4.16667,0,0,4.16667,0,0)">
            <path d="M162,156.889L189,183.889L162,183.889L162,156.889Z" style="fill:none;stroke-width:2px;stroke-linejoin:bevel;stroke:rgb(113,146,161);"/>
        </g>
        <g transform="matrix(4.16667,0,0,4.16667,0,0)">
            <clipPath id="_clip5">
                <path d="M158.277,195.711L174.883,202.318L158.277,208.923L158.277,214.126L181.262,204.986L181.262,199.648L158.277,190.508L158.277,195.711ZM124.296,199.648L124.296,204.986L147.281,214.126L147.281,208.923L130.675,202.318L147.281,195.711L147.281,190.508L124.296,199.648Z"/>
            </clipPath>
            <g clip-path="url(#_clip5)">
                <path d="M124.296,214.126L124.296,190.508L181.262,190.508L181.262,214.126L124.296,214.126Z" style="fill:url(#_Linear6);fill-rule:nonzero;"/>
            </g>
        </g>
        <g transform="matrix(4.16667,0,0,4.16667,0,0)">
            <g transform="matrix(1,0,0,1,-1.44,0)">
                <text x="126px" y="246.889px" style="font-family:'Arial-BoldMT', 'Arial', sans-serif;font-weight:700;font-size:28px;fill:rgb(76,108,123);">XML</text>
            </g>
        </g>
    </g>
    <defs>
        <linearGradient id="_Linear2" x1="0" y1="0" x2="1" y2="0" gradientUnits="userSpaceOnUse" gradientTransform="matrix(-4.3e-06,-98.9995,98.9995,-4.3e-06,153,255.889)"><stop offset="0%" style="stop-color:rgb(200,212,219);stop-opacity:1"/><stop offset="100%" style="stop-color:white;stop-opacity:1"/></linearGradient>
        <linearGradient id="_Linear4" x1="0" y1="0" x2="1" y2="0" gradientUnits="userSpaceOnUse" gradientTransform="matrix(13.5003,-13.5003,13.5003,13.5003,162,183.89)"><stop offset="0%" style="stop-color:white;stop-opacity:1"/><stop offset="81%" style="stop-color:rgb(197,209,216);stop-opacity:1"/><stop offset="100%" style="stop-color:rgb(146,166,177);stop-opacity:1"/></linearGradient>
        <linearGradient id="_Linear6" x1="0" y1="0" x2="1" y2="0" gradientUnits="userSpaceOnUse" gradientTransform="matrix(-1e-06,-23.6182,23.6182,-1e-06,152.779,214.126)"><stop offset="0%" style="stop-color:rgb(134,155,166);stop-opacity:1"/><stop offset="100%" style="stop-color:rgb(64,98,113);stop-opacity:1"/></linearGradient>
    </defs>
</svg>
